<?xml version="1.0" encoding="UTF-8"?>
<svg width="700pt" height="700pt" version="1.1" viewBox="0 0 700 700" xmlns="http://www.w3.org/2000/svg" xmlns:xlink="http://www.w3.org/1999/xlink">
 <defs>
  <symbol id="k" overflow="visible">
   <path d="m20.844-1.25c-1.0742 0.5625-2.1953 0.98438-3.3594 1.2656-1.168 0.28125-2.3828 0.42188-3.6406 0.42188-3.7812 0-6.7773-1.0508-8.9844-3.1562-2.2109-2.1133-3.3125-4.9766-3.3125-8.5938 0-3.625 1.1016-6.4922 3.3125-8.6094 2.207-2.1133 5.2031-3.1719 8.9844-3.1719 1.2578 0 2.4727 0.14844 3.6406 0.4375 1.1641 0.28125 2.2852 0.69922 3.3594 1.25v4.7031c-1.0859-0.73828-2.1523-1.2812-3.2031-1.625-1.0547-0.34375-2.1641-0.51562-3.3281-0.51562-2.0859 0-3.7266 0.66797-4.9219 2-1.1992 1.3359-1.7969 3.1797-1.7969 5.5312 0 2.3359 0.59766 4.1719 1.7969 5.5156 1.1953 1.3359 2.8359 2 4.9219 2 1.1641 0 2.2734-0.17188 3.3281-0.51562 1.0508-0.34375 2.1172-0.88281 3.2031-1.625z"/>
  </symbol>
  <symbol id="d" overflow="visible">
   <path d="m15.25-12.375c-0.48047-0.22656-0.95312-0.39453-1.4219-0.5-0.46875-0.10156-0.94531-0.15625-1.4219-0.15625-1.3984 0-2.4766 0.44922-3.2344 1.3438-0.75 0.89844-1.125 2.1797-1.125 3.8438v7.8438h-5.4375v-17.016h5.4375v2.7969c0.69531-1.1133 1.5-1.9258 2.4062-2.4375 0.90625-0.50781 1.9922-0.76562 3.2656-0.76562 0.17578 0 0.36719 0.011719 0.57812 0.03125 0.21875 0.011719 0.53125 0.042969 0.9375 0.09375z"/>
  </symbol>
  <symbol id="c" overflow="visible">
   <path d="m19.594-8.5469v1.5469h-12.719c0.13281 1.2734 0.59766 2.2305 1.3906 2.875 0.78906 0.63672 1.8945 0.95312 3.3125 0.95312 1.1445 0 2.3164-0.16406 3.5156-0.5 1.1953-0.34375 2.4297-0.85938 3.7031-1.5469v4.1875c-1.293 0.49219-2.5859 0.85547-3.875 1.0938-1.2812 0.25-2.5625 0.375-3.8438 0.375-3.0859 0-5.4805-0.78125-7.1875-2.3438-1.6992-1.5625-2.5469-3.7539-2.5469-6.5781 0-2.7812 0.83203-4.9609 2.5-6.5469 1.6758-1.5938 3.9844-2.3906 6.9219-2.3906 2.6758 0 4.8164 0.80859 6.4219 2.4219 1.6016 1.6055 2.4062 3.7578 2.4062 6.4531zm-5.5938-1.8125c0-1.0312-0.30469-1.8633-0.90625-2.5-0.59375-0.63281-1.3828-0.95312-2.3594-0.95312-1.0547 0-1.9062 0.29688-2.5625 0.89062s-1.0703 1.4492-1.2344 2.5625z"/>
  </symbol>
  <symbol id="e" overflow="visible">
   <path d="m10.234-7.6562c-1.1367 0-1.9922 0.19531-2.5625 0.57812-0.5625 0.38672-0.84375 0.95312-0.84375 1.7031 0 0.6875 0.22656 1.2305 0.6875 1.625 0.45703 0.38672 1.0977 0.57812 1.9219 0.57812 1.0195 0 1.8789-0.36328 2.5781-1.0938 0.69531-0.73828 1.0469-1.6602 1.0469-2.7656v-0.625zm8.3125-2.0469v9.7031h-5.4844v-2.5156c-0.73047 1.0312-1.5547 1.7812-2.4688 2.25-0.90625 0.46875-2.0117 0.70312-3.3125 0.70312-1.7617 0-3.1953-0.50781-4.2969-1.5312-1.0938-1.0312-1.6406-2.3672-1.6406-4.0156 0-1.9883 0.67969-3.4453 2.0469-4.375 1.375-0.9375 3.5312-1.4062 6.4688-1.4062h3.2031v-0.42188c0-0.86328-0.33984-1.4922-1.0156-1.8906-0.67969-0.40625-1.7344-0.60938-3.1719-0.60938-1.168 0-2.2578 0.12109-3.2656 0.35938-1 0.23047-1.9297 0.57812-2.7812 1.0469v-4.1562c1.1641-0.28125 2.332-0.49219 3.5-0.64062 1.1758-0.14453 2.3516-0.21875 3.5312-0.21875 3.0703 0 5.2852 0.60547 6.6406 1.8125 1.3633 1.2109 2.0469 3.1797 2.0469 5.9062z"/>
  </symbol>
  <symbol id="b" overflow="visible">
   <path d="m8.5469-21.844v4.8281h5.6094v3.8906h-5.6094v7.2188c0 0.79297 0.15625 1.3281 0.46875 1.6094 0.32031 0.27344 0.94531 0.40625 1.875 0.40625h2.7969v3.8906h-4.6719c-2.1484 0-3.668-0.44531-4.5625-1.3438-0.89844-0.89453-1.3438-2.4141-1.3438-4.5625v-7.2188h-2.7031v-3.8906h2.7031v-4.8281z"/>
  </symbol>
  <symbol id="n" overflow="visible">
   <path d="m14.188-14.516v-9.125h5.4688v23.641h-5.4688v-2.4531c-0.75 1-1.5781 1.7344-2.4844 2.2031-0.89844 0.45703-1.9375 0.6875-3.125 0.6875-2.0938 0-3.8203-0.83203-5.1719-2.5-1.3438-1.6641-2.0156-3.8047-2.0156-6.4219 0-2.625 0.67188-4.7695 2.0156-6.4375 1.3516-1.6641 3.0781-2.5 5.1719-2.5 1.1758 0 2.2188 0.23438 3.125 0.70312s1.7344 1.2031 2.4844 2.2031zm-3.5781 11c1.1562 0 2.0391-0.42188 2.6562-1.2656 0.61328-0.85156 0.92188-2.0859 0.92188-3.7031 0-1.625-0.30859-2.8594-0.92188-3.7031-0.61719-0.85156-1.5-1.2812-2.6562-1.2812s-2.043 0.42969-2.6562 1.2812c-0.61719 0.84375-0.92188 2.0781-0.92188 3.7031 0 1.6172 0.30469 2.8516 0.92188 3.7031 0.61328 0.84375 1.5 1.2656 2.6562 1.2656z"/>
  </symbol>
  <symbol id="m" overflow="visible">
   <path d="m11.672-3.5156c1.1562 0 2.0391-0.42188 2.6562-1.2656 0.61328-0.85156 0.92188-2.0859 0.92188-3.7031 0-1.625-0.30859-2.8594-0.92188-3.7031-0.61719-0.85156-1.5-1.2812-2.6562-1.2812-1.168 0-2.0625 0.42969-2.6875 1.2812-0.625 0.85547-0.9375 2.0898-0.9375 3.7031 0 1.6055 0.3125 2.8359 0.9375 3.6875 0.625 0.85547 1.5195 1.2812 2.6875 1.2812zm-3.625-11c0.75-1 1.5781-1.7344 2.4844-2.2031 0.91406-0.46875 1.9688-0.70312 3.1562-0.70312 2.0938 0 3.8125 0.83594 5.1562 2.5 1.3516 1.668 2.0312 3.8125 2.0312 6.4375 0 2.6172-0.67969 4.7578-2.0312 6.4219-1.3438 1.668-3.0625 2.5-5.1562 2.5-1.1875 0-2.2422-0.23438-3.1562-0.70312-0.90625-0.46875-1.7344-1.1953-2.4844-2.1875v2.4531h-5.4375v-23.641h5.4375z"/>
  </symbol>
  <symbol id="l" overflow="visible">
   <path d="m0.375-17.016h5.4375l4.5781 11.547 3.8906-11.547h5.4375l-7.1562 18.625c-0.71875 1.8945-1.5586 3.2188-2.5156 3.9688-0.96094 0.75781-2.2188 1.1406-3.7812 1.1406h-3.1562v-3.5781h1.7031c0.92578 0 1.5977-0.14844 2.0156-0.4375 0.41406-0.29297 0.74219-0.82031 0.98438-1.5781l0.14062-0.46875z"/>
  </symbol>
  <symbol id="f" overflow="visible">
   <path d="m2.6094-17.016h5.4375v17.016h-5.4375zm0-6.625h5.4375v4.4375h-5.4375z"/>
  </symbol>
  <symbol id="j" overflow="visible">
   <path d="m15.906-16.484v4.1406c-1.168-0.48828-2.293-0.85156-3.375-1.0938-1.0859-0.25-2.1055-0.375-3.0625-0.375-1.043 0-1.8125 0.13281-2.3125 0.39062-0.5 0.26172-0.75 0.65625-0.75 1.1875 0 0.4375 0.1875 0.77734 0.5625 1.0156 0.38281 0.23047 1.0664 0.40234 2.0469 0.51562l0.96875 0.125c2.7812 0.35547 4.6484 0.9375 5.6094 1.75 0.96875 0.8125 1.4531 2.0859 1.4531 3.8125 0 1.8125-0.67188 3.1797-2.0156 4.0938-1.3359 0.90625-3.3281 1.3594-5.9844 1.3594-1.1172 0-2.2773-0.089844-3.4844-0.26562-1.1992-0.17578-2.4297-0.44141-3.6875-0.79688v-4.125c1.082 0.52344 2.1914 0.91797 3.3281 1.1875 1.1328 0.26172 2.2891 0.39062 3.4688 0.39062 1.0625 0 1.8594-0.14453 2.3906-0.4375 0.53906-0.30078 0.8125-0.73828 0.8125-1.3125 0-0.48828-0.1875-0.84766-0.5625-1.0781-0.36719-0.23828-1.1016-0.42578-2.2031-0.5625l-0.95312-0.125c-2.418-0.30078-4.1172-0.85938-5.0938-1.6719-0.96875-0.82031-1.4531-2.0703-1.4531-3.75 0-1.8008 0.61328-3.1328 1.8438-4 1.2383-0.875 3.1328-1.3125 5.6875-1.3125 1 0 2.0508 0.078125 3.1562 0.23438 1.1016 0.14844 2.3047 0.38281 3.6094 0.70312z"/>
  </symbol>
  <symbol id="i" overflow="visible">
   <path d="m19.719-10.359v10.359h-5.4688v-7.9219c0-1.4688-0.039062-2.4766-0.10938-3.0312-0.0625-0.5625-0.17188-0.97656-0.32812-1.25-0.21875-0.35156-0.51172-0.62891-0.875-0.82812-0.36719-0.19531-0.77734-0.29688-1.2344-0.29688-1.1367 0-2.0312 0.44531-2.6875 1.3281-0.64844 0.875-0.96875 2.0859-0.96875 3.625v8.375h-5.4375v-17.016h5.4375v2.5c0.82031-1 1.6914-1.7344 2.6094-2.2031 0.92578-0.46875 1.9453-0.70312 3.0625-0.70312 1.957 0 3.4453 0.60547 4.4688 1.8125 1.0195 1.1992 1.5312 2.9492 1.5312 5.25z"/>
  </symbol>
  <symbol id="a" overflow="visible">
   <path d="m10.703-13.531c-1.1992 0-2.1172 0.43359-2.75 1.2969-0.63672 0.86719-0.95312 2.1172-0.95312 3.75 0 1.625 0.31641 2.8711 0.95312 3.7344 0.63281 0.86719 1.5508 1.2969 2.75 1.2969 1.1875 0 2.0938-0.42969 2.7188-1.2969 0.63281-0.86328 0.95312-2.1094 0.95312-3.7344 0-1.6328-0.32031-2.8828-0.95312-3.75-0.625-0.86328-1.5312-1.2969-2.7188-1.2969zm0-3.8906c2.9258 0 5.2109 0.79297 6.8594 2.375 1.6445 1.5742 2.4688 3.7617 2.4688 6.5625 0 2.793-0.82422 4.9805-2.4688 6.5625-1.6484 1.5742-3.9336 2.3594-6.8594 2.3594-2.9375 0-5.2344-0.78516-6.8906-2.3594-1.6484-1.582-2.4688-3.7695-2.4688-6.5625 0-2.8008 0.82031-4.9883 2.4688-6.5625 1.6562-1.582 3.9531-2.375 6.8906-2.375z"/>
  </symbol>
  <symbol id="u" overflow="visible">
   <path d="m1.75-22.672h19.062v3.5312l-12.172 14.719h12.516v4.4219h-19.766v-3.5469l12.172-14.719h-11.812z"/>
  </symbol>
  <symbol id="h" overflow="visible">
   <path d="m2.4375-6.625v-10.391h5.4688v1.7031c0 0.92969-0.007812 2.0898-0.015625 3.4844-0.011719 1.3867-0.015625 2.3125-0.015625 2.7812 0 1.3672 0.03125 2.3516 0.09375 2.9531 0.070312 0.60547 0.19531 1.043 0.375 1.3125 0.21875 0.35547 0.50391 0.63281 0.85938 0.82812 0.36328 0.1875 0.78125 0.28125 1.25 0.28125 1.1328 0 2.0234-0.42969 2.6719-1.2969 0.64453-0.875 0.96875-2.0859 0.96875-3.6406v-8.4062h5.4375v17.016h-5.4375v-2.4531c-0.82422 0.99219-1.6953 1.7188-2.6094 2.1875-0.91797 0.46875-1.9297 0.70312-3.0312 0.70312-1.9609 0-3.4531-0.59766-4.4844-1.7969-1.0234-1.207-1.5312-2.9609-1.5312-5.2656z"/>
  </symbol>
  <symbol id="g" overflow="visible">
   <path d="m16.359-16.484v4.4375c-0.74219-0.50781-1.4844-0.88281-2.2344-1.125-0.74219-0.23828-1.5117-0.35938-2.3125-0.35938-1.5117 0-2.6953 0.44531-3.5469 1.3281-0.84375 0.88672-1.2656 2.125-1.2656 3.7188 0 1.5859 0.42188 2.8203 1.2656 3.7031 0.85156 0.88672 2.0352 1.3281 3.5469 1.3281 0.85156 0 1.6602-0.125 2.4219-0.375 0.76953-0.25 1.4766-0.625 2.125-1.125v4.4531c-0.85547 0.3125-1.7188 0.54688-2.5938 0.70312s-1.75 0.23438-2.625 0.23438c-3.0742 0-5.4766-0.78516-7.2031-2.3594-1.7305-1.5703-2.5938-3.7578-2.5938-6.5625 0-2.8125 0.86328-5.0039 2.5938-6.5781 1.7266-1.5703 4.1289-2.3594 7.2031-2.3594 0.88281 0 1.7578 0.078125 2.625 0.23438 0.86328 0.15625 1.7266 0.39062 2.5938 0.70312z"/>
  </symbol>
  <symbol id="t" overflow="visible">
   <path d="m13.812-23.641v3.5781h-3.0156c-0.77344 0-1.3086 0.14062-1.6094 0.42188-0.30469 0.27344-0.45312 0.75-0.45312 1.4375v1.1875h4.6406v3.8906h-4.6406v13.125h-5.4375v-13.125h-2.7031v-3.8906h2.7031v-1.1875c0-1.8516 0.51562-3.2227 1.5469-4.1094 1.0312-0.88281 2.6289-1.3281 4.7969-1.3281z"/>
  </symbol>
  <symbol id="s" overflow="visible">
   <path d="m18.375-14.188c0.6875-1.0508 1.5039-1.8516 2.4531-2.4062 0.94531-0.55078 1.9883-0.82812 3.125-0.82812 1.957 0 3.4453 0.60547 4.4688 1.8125 1.0195 1.1992 1.5312 2.9492 1.5312 5.25v10.359h-5.4688v-8.875c0.007813-0.125 0.015625-0.25781 0.015625-0.40625 0.007812-0.14453 0.015625-0.34766 0.015625-0.60938 0-1.207-0.17969-2.082-0.53125-2.625-0.35547-0.53906-0.92969-0.8125-1.7188-0.8125-1.0312 0-1.8281 0.42969-2.3906 1.2812-0.5625 0.85547-0.85547 2.0859-0.875 3.6875v8.3594h-5.4688v-8.875c0-1.8828-0.16406-3.0977-0.48438-3.6406-0.32422-0.53906-0.90234-0.8125-1.7344-0.8125-1.043 0-1.8516 0.43359-2.4219 1.2969-0.5625 0.85547-0.84375 2.0742-0.84375 3.6562v8.375h-5.4688v-17.016h5.4688v2.5c0.66406-0.96875 1.4297-1.6914 2.2969-2.1719 0.875-0.48828 1.832-0.73438 2.875-0.73438 1.1758 0 2.2109 0.28906 3.1094 0.85938 0.90625 0.5625 1.5859 1.3555 2.0469 2.375z"/>
  </symbol>
  <symbol id="r" overflow="visible">
   <path d="m19.719-10.359v10.359h-5.4688v-7.9062c0-1.4766-0.039062-2.4922-0.10938-3.0469-0.0625-0.5625-0.17188-0.97656-0.32812-1.25-0.21875-0.35156-0.51172-0.62891-0.875-0.82812-0.36719-0.19531-0.77734-0.29688-1.2344-0.29688-1.1367 0-2.0312 0.44531-2.6875 1.3281-0.64844 0.875-0.96875 2.0859-0.96875 3.625v8.375h-5.4375v-23.641h5.4375v9.125c0.82031-1 1.6914-1.7344 2.6094-2.2031 0.92578-0.46875 1.9453-0.70312 3.0625-0.70312 1.957 0 3.4453 0.60547 4.4688 1.8125 1.0195 1.1992 1.5312 2.9492 1.5312 5.25z"/>
  </symbol>
  <symbol id="q" overflow="visible">
   <path d="m2.8594-22.672h6.5312l8.25 15.547v-15.547h5.5469v22.672h-6.5469l-8.2344-15.562v15.562h-5.5469z"/>
  </symbol>
  <symbol id="p" overflow="visible">
   <path d="m2.8594-22.672h9.7031c2.8828 0 5.0977 0.64062 6.6406 1.9219 1.5508 1.2812 2.3281 3.1055 2.3281 5.4688 0 2.375-0.77734 4.2031-2.3281 5.4844-1.543 1.2812-3.7578 1.9219-6.6406 1.9219h-3.8594v7.875h-5.8438zm5.8438 4.2344v6.3281h3.2344c1.1328 0 2.0078-0.27344 2.625-0.82812 0.625-0.55078 0.9375-1.332 0.9375-2.3438 0-1.0078-0.3125-1.7852-0.9375-2.3281-0.61719-0.55078-1.4922-0.82812-2.625-0.82812z"/>
  </symbol>
  <symbol id="o" overflow="visible">
   <path d="m2.6094-17.016h5.4375v16.719c0 2.2695-0.54688 4.0039-1.6406 5.2031-1.0938 1.207-2.6797 1.8125-4.75 1.8125h-2.6875v-3.5781h0.9375c1.0312 0 1.7383-0.23438 2.125-0.70312 0.38281-0.46094 0.57812-1.3711 0.57812-2.7344zm0-6.625h5.4375v4.4375h-5.4375z"/>
  </symbol>
 </defs>
 <g>
  <path d="m428.49 468.32c12.465-10.789 18.617-23.742 18.461-38.844v-1.1953c15.773-2.1602 30.277-7.9883 43.531-17.504l0.125-0.125c20.227-14.957 30.141-32.984 29.73-54.07-0.019532-5.0469-0.57422-9.9688-1.6797-14.754 1.8398-1.1953 3.8008-2.4766 5.8672-3.8281 0.24219-0.21875 0.48438-0.41016 0.72266-0.60547 13.352-9.3398 20.035-24.285 20.023-44.852 0.47266-11.469-3.5586-23.141-12.102-35.008 4.0742-2.3516 7.9883-4.9453 11.746-7.7891 1.9492-1.3672 4.1875-3.1289 6.7148-5.2773 0.92188-0.79688 1.7617-1.6797 2.5195-2.6445 0.17578-0.23828 0.37891-0.51562 0.60547-0.83984 19.836-18.148 29.551-36.188 29.133-54.066 1.0391-18.512-8.5117-36.457-28.652-53.848l-0.125-0.11328c-32.965-29.52-74.809-35.355-125.54-17.504-1.125-1.2266-2.2852-2.4648-3.4766-3.7227v0.125c-25.797-26.91-54.176-40.227-85.133-39.934-21.859-0.58984-46.723 10.434-74.578 33.098l-0.125 0.125c-16.508 12.75-30.332 32.484-41.484 59.23-6.7266-3.5898-13.477-5.2266-20.266-4.9141-24.797-0.97656-44.621 13.684-59.477 44.012l0.125-0.125c-10.445 20.812-17.242 43.719-20.379 68.707v0.11328c-3.0352 25.406-0.24219 50.984 8.3945 76.738l0.125 0.125c8.9844 28.062 30.613 43.598 64.867 46.641 3.5039 6.875 8.0625 14.074 13.672 21.586l0.11719 0.125c19.301 27.535 51.75 37.488 97.359 29.855 3.3398 3.8008 7.1797 7.6406 11.516 11.516v0.125c19.035 17.074 38.812 25.344 59.355 24.82h0.23828c21.023-0.41016 36.973-5.4492 47.844-15.113 0.050781-0.11719 0.13672-0.19141 0.22266-0.26562zm-44.004-128.54c0.23828 0.13672 0.47266 0.29688 0.71484 0.48047 1.6055 0.95312 3.2031 1.9219 4.7969 2.875 11.945 7.1914 24.535 12.27 37.762 15.227 9.6445 2.1719 19.555 3.2461 29.734 3.2344 10.355-0.007812 20.266-1.4062 29.734-4.1953-0.68359 10.172-6.0859 19.008-16.191 26.5l-0.125 0.125c-11.316 8.082-24.023 12.121-38.129 12.109-16.727-0.007813-32.316-4.4102-46.766-13.184l0.125 0.11328c-14.691-9.1406-22.246-20.926-22.66-35.375-0.007813-5.793 1.8281-10.105 5.5117-12.941h0.24219c1.6133-1.0312 3.4102-1.8398 5.3945-2.4023 3.0117 2.5586 6.2969 5.0391 9.8555 7.4336zm46.039-70.738c0.66406 0.19922 1.3086 0.35547 1.9219 0.48047 1.7539 0.31641 3.5156 0.63281 5.2773 0.95312l-0.83984-0.23828c13.09 3.1172 26.289 4.2383 39.566 3.3555h0.11719c7.9531-0.46094 15.91-1.6133 23.867-3.4766 7.2539 7.8203 11.168 15.293 11.754 22.418-0.011718 7.8164-2.0469 13.762-6.1172 17.871l-0.36719 0.35938c-0.125 0.074219-0.23828 0.15625-0.35938 0.24219-2.2227 1.4297-4.3008 2.8359-6.2344 4.1992h-0.11719c-2.1953 1.5547-4.2383 2.9609-6.1172 4.1953-0.19141 0.097656-0.39062 0.21875-0.59766 0.35938-0.94141 0.36719-1.8594 0.84766-2.7578 1.4375-0.64844 0.19922-1.2891 0.42969-1.9219 0.71484-9.3203 4.4102-19.352 6.6133-30.098 6.5938-7.7148-0.011718-15.23-0.85156-22.543-2.5078-9.7812-2.1641-19.098-5.8789-27.938-11.156-1.5938-0.95703-3.1914-1.9219-4.7969-2.8828-4.2578-2.9805-7.8516-6.1797-10.789-9.5898v0.125c-5.9844-7.125-8.9805-15.23-8.9922-24.348 0.007813-6.1523 2.0859-10.707 6.2422-13.664v-0.125c5.3516-2.9727 12.312-4.4492 20.863-4.4297 6.0195 3.6055 13.012 6.6367 20.977 9.1133zm102.89-111.03 0.11719 0.125c10.969 9.4453 16.727 18.879 17.266 28.285-0.89062 9.8633-7.2422 20.129-19.066 30.82-0.54297 0.52344-1.0586 1.0898-1.5547 1.6797-0.42188 0.51562-0.82812 0.99609-1.1953 1.4453-1.0938 0.88281-2.0898 1.6367-2.9922 2.2773-0.19922 0.16797-0.39844 0.32812-0.60547 0.48047-6.2422 4.7969-13.152 8.6367-20.746 11.516-2.5078 0.72656-5.0664 1.4492-7.6719 2.1523-7.4727 2.0703-14.945 3.3047-22.426 3.7227h-0.11719c-10.023 0.71094-19.98-0.09375-29.859-2.4023-0.28125-0.082031-0.56641-0.15625-0.83984-0.23828-1.4453-0.26562-2.8867-0.54297-4.3164-0.83984-1.4297-0.46094-2.8359-0.93359-4.1953-1.4453 5.5117-3.0352 10.305-7.2305 14.387-12.586 0.070313-0.125 0.14453-0.24219 0.25-0.35547 5.3125-7.082 8.7539-15.598 10.305-25.535 3.293 1.3672 8.0898 3.4453 14.391 6.2266 4.2188 1.8711 8.4492 1.9922 12.711 0.36719 4.2305-1.6602 7.2656-4.5742 9.1094-8.7617 1.8789-4.207 1.9961-8.4375 0.36719-12.711-1.668-4.2266-4.5781-7.2617-8.7539-9.1016-14.617-6.4883-23.453-9.9297-26.5-10.316-0.51562-0.0625-1.0391-0.097656-1.5547-0.125-0.62109-0.054687-1.2188-0.09375-1.7969-0.125-0.085938-0.28516-0.16016-0.57422-0.24219-0.83203-0.039062-0.1875-0.082031-0.38672-0.125-0.59766-1.7656-5.7109-4.2891-11.469-7.5547-17.273 33.133-9.2344 60.867-4.5234 83.211 14.148zm-294.96 239.56-0.125-0.125c-12.531-16.91-16.844-30.496-12.953-40.77 2.1484-4.043 2.5508-8.2461 1.1992-12.586-1.332-4.375-4.0078-7.6484-8.0312-9.8242-4.0312-2.1484-8.2305-2.543-12.586-1.1953-4.3672 1.3359-7.6484 4.0195-9.832 8.0273-3.7227 5.9844-5.8789 12.457-6.4727 19.426-12.34-3.6641-20.734-11.09-25.18-22.309l0.11719 0.125c-7.0195-20.883-9.332-41.621-6.957-62.223v-0.125c2.6328-21.012 8.3125-40.277 17.031-57.797l0.11719-0.11328c7.8633-16.07 17.77-24.59 29.734-25.543 2.9258 0.39062 5.918 1.75 8.9922 4.0742-2.4258 8.4141-4.668 17.277-6.7148 26.617-0.95703 4.4492-0.19922 8.6133 2.2773 12.469 2.4531 3.8828 5.8867 6.3164 10.309 7.3164 4.457 0.96484 8.6133 0.20703 12.469-2.2773 3.8711-2.457 6.3086-5.8789 7.3125-10.316 10.602-48.426 26.551-81.598 47.844-99.52l0.125-0.125c20.371-16.59 38.324-25.188 53.836-25.777 22.125 0.33594 42.504 10.246 61.152 29.742 3.2734 3.3984 6.2422 6.8008 8.8711 10.191 0.082031 0.11328 0.15625 0.23828 0.23828 0.35547 0.33594 0.46484 0.69141 0.91016 1.082 1.3203 6.5781 8.3828 11.168 16.582 13.789 24.578l-0.125-0.59766c0.78516 2.7695 1.3867 5.5234 1.7969 8.2695-0.011719 0.21875-0.011719 0.41016 0 0.60547 0.13672 1.5 0.22266 3.0547 0.24219 4.6719-0.007812 7.6914-1.6875 14.051-5.0391 19.059l0.23828-0.23828c-2.8867 3.7969-6.9609 5.5938-12.227 5.3945-2.4062 0.03125-4.7305-0.25391-6.957-0.83984l-0.35938-0.125h-0.125c-4.9414-1.6797-9.5742-4.7227-13.906-9.1016h-0.11719c-10.652-10.547-18.406-18.105-23.266-22.672-0.67188-1.5742-1.6367-3.043-2.875-4.4297-2.8359-3.1484-6.3516-4.9453-10.555-5.3945-4.2188-0.46484-8.0508 0.52344-11.512 3-3.4297 2.5078-5.5859 5.832-6.4766 9.9492-1.7305 5.9102-0.80859 13.938 2.7578 24.105l0.125 0.24219c1.7617 4.8047 2.7578 8.3203 3 10.547-0.31641 10.305-4.543 20.977-12.711 32.02l-0.125 0.11328c-7.6953 10.105-15.656 15.992-23.863 17.629-4.5 0.60547-8.1328 2.7266-10.914 6.3516-2.8047 3.6328-3.9336 7.7109-3.3555 12.234 0.60547 4.5 2.7188 8.1328 6.3516 10.914 3.6328 2.8008 7.7109 3.9258 12.238 3.3555 14.586-1.3672 28.367-9.6367 41.367-24.812-0.24219 2.1641-0.36719 4.3984-0.36719 6.707 0 9.5078 1.7109 18.418 5.1602 26.742-1.1836 0.67188-2.3398 1.3984-3.4844 2.1602-13.746 8.3672-20.613 21.91-20.621 40.645-0.023437 1.8281 0.011719 3.6289 0.125 5.3945-10.523 1.4258-19.477 6.7773-26.855 16.07l-0.11719 0.11719c-7.832 9.4258-11.746 21.328-11.754 35.734-0.054687 3.5977 0.30469 7.1914 1.0781 10.789-24.52 1.9219-42.672-4.1562-54.418-18.227zm141.24 53c-12.633-0.27344-24.902-5.7539-36.816-16.434v0.125c-5.2656-4.8047-9.457-9.5273-12.586-14.145l-0.23828-0.36719c-0.20703-0.30469-0.40625-0.58594-0.60547-0.83984-2.8945-4.6719-4.4102-9.3086-4.5547-13.906-0.007813-5.9922 1.4688-11 4.4414-14.984l0.11719-0.125c2.0156-2.5586 4.5-3.9219 7.4375-4.0742 0.74609-0.011719 1.3516-0.011719 1.7969 0 0.26562 0.10547 0.54688 0.22266 0.83984 0.35547 0.94141 0.48047 1.9023 0.87891 2.8828 1.1992 6.2656 8.8398 15.02 16.758 26.258 23.742l0.125 0.11328c13.844 8.4062 28.473 13.883 43.887 16.434 0.37891 0.56641 0.82031 1.1211 1.3203 1.6797l-0.11719 0.125c-0.15625 5.2578-2.3945 9.8047-6.7188 13.664-6.3477 4.6992-15.418 7.1758-27.215 7.4414l-0.25391 0.003906z"/>
  <use x="70" y="653.332031" xlink:href="#k"/>
  <use x="92.832031" y="653.332031" xlink:href="#d"/>
  <use x="108.175781" y="653.332031" xlink:href="#c"/>
  <use x="129.273437" y="653.332031" xlink:href="#e"/>
  <use x="150.269531" y="653.332031" xlink:href="#b"/>
  <use x="165.140625" y="653.332031" xlink:href="#c"/>
  <use x="186.242188" y="653.332031" xlink:href="#n"/>
  <use x="219.34375" y="653.332031" xlink:href="#m"/>
  <use x="241.613281" y="653.332031" xlink:href="#l"/>
  <use x="272.722656" y="653.332031" xlink:href="#k"/>
  <use x="295.554688" y="653.332031" xlink:href="#d"/>
  <use x="310.898438" y="653.332031" xlink:href="#f"/>
  <use x="321.5625" y="653.332031" xlink:href="#j"/>
  <use x="340.082031" y="653.332031" xlink:href="#b"/>
  <use x="354.953125" y="653.332031" xlink:href="#f"/>
  <use x="365.617187" y="653.332031" xlink:href="#e"/>
  <use x="386.609375" y="653.332031" xlink:href="#i"/>
  <use x="408.757812" y="653.332031" xlink:href="#a"/>
  <use x="440.964844" y="653.332031" xlink:href="#u"/>
  <use x="463.523437" y="653.332031" xlink:href="#a"/>
  <use x="484.894531" y="653.332031" xlink:href="#h"/>
  <use x="507.042969" y="653.332031" xlink:href="#g"/>
  <use x="525.484375" y="653.332031" xlink:href="#e"/>
  <use x="546.480469" y="653.332031" xlink:href="#j"/>
  <use x="70" y="684.445312" xlink:href="#t"/>
  <use x="83.535156" y="684.445312" xlink:href="#d"/>
  <use x="98.878906" y="684.445312" xlink:href="#a"/>
  <use x="120.25" y="684.445312" xlink:href="#s"/>
  <use x="163.5" y="684.445312" xlink:href="#b"/>
  <use x="178.371094" y="684.445312" xlink:href="#r"/>
  <use x="200.519531" y="684.445312" xlink:href="#c"/>
  <use x="232.453125" y="684.445312" xlink:href="#q"/>
  <use x="258.488281" y="684.445312" xlink:href="#a"/>
  <use x="279.863281" y="684.445312" xlink:href="#h"/>
  <use x="302.011719" y="684.445312" xlink:href="#i"/>
  <use x="334.992188" y="684.445312" xlink:href="#p"/>
  <use x="357.792969" y="684.445312" xlink:href="#d"/>
  <use x="373.136719" y="684.445312" xlink:href="#a"/>
  <use x="394.507812" y="684.445312" xlink:href="#o"/>
  <use x="405.171875" y="684.445312" xlink:href="#c"/>
  <use x="426.273437" y="684.445312" xlink:href="#g"/>
  <use x="444.714844" y="684.445312" xlink:href="#b"/>
 </g>
</svg>
